# xmcd
#
# Track frame offsets: 
#        150
#        11043
#        24624
#        36451
#        47749
#        60825
#        71600
#        82642
#        94332
#        105042
#        115640
#        128201
#        140034
#        151730
#        163449
#        175373
#        188294
#        199889
#        211178
#        220608
#        232061
#        241648
#        253334
#        266888
#        284071
#        295613
#
# Disc length: 4075 seconds
#
# Revision: 0
# Processed by: cddbd v1.5.2PL0 Copyright (c) Steve Scherf et al.
# Submitted via: ExactAudioCopy v1.1
#
DISCID=720fe91a
DTITLE=The Louvin Brothers - The Louvine Brothers_The Family Who Prays
DYEAR=2008
DGENRE=Country
TTITLE0=You'll Be Rewarded Over There
TTITLE1=I'll Live with God (To Die No More)
TTITLE2=Robe of White
TTITLE3=Broad Minded
TTITLE4=The Family Who Prays (Shall Never Part)
TTITLE5=Born Again
TTITLE6=Preach the Gospel
TTITLE7=If We Forget God
TTITLE8=Satan and the Saint
TTITLE9=Satan Lied to Me
TTITLE10=Nearer My God to Thee
TTITLE11=Make Him a Soldier
TTITLE12=I Can't Say No
TTITLE13=Just Rehearsing
TTITLE14=Love Thy Neighbor as Thy Self
TTITLE15=Pray for Me
TTITLE16=Where Will You Build
TTITLE17=When I Stop Dreaming
TTITLE18=Pitfall
TTITLE19=Don't Laugh
TTITLE20=I Don't Believe You've Met My Baby
TTITLE21=Hoping That You're Hoping
TTITLE22=What Is Home Without Love
TTITLE23=Knoxville Girl
TTITLE24=A Tiny Broken Heart
TTITLE25=You're Running Wild
EXTD=
EXTT0=
EXTT1=
EXTT2=
EXTT3=
EXTT4=
EXTT5=
EXTT6=
EXTT7=
EXTT8=
EXTT9=
EXTT10=
EXTT11=
EXTT12=
EXTT13=
EXTT14=
EXTT15=
EXTT16=
EXTT17=
EXTT18=
EXTT19=
EXTT20=
EXTT21=
EXTT22=
EXTT23=
EXTT24=
EXTT25=
PLAYORDER=
